<?xml version="1.0" encoding="UTF-8" standalone="no"?>
<!-- Created with Inkscape (http://www.inkscape.org/) -->

<svg
   width="95.205307"
   height="84.893616"
   viewBox="0 0 25.189737 22.461436"
   version="1.1"
   id="svg1"
   xmlns="http://www.w3.org/2000/svg"
   xmlns:svg="http://www.w3.org/2000/svg">
  <defs
     id="defs1" />
  <g
     id="layer1"
     transform="translate(-0.44167364,-2.4854161)">
    <g
       id="g2"
       transform="matrix(0.15018503,0,0,0.15018503,12.521555,12.061902)">
      <path
         fill="#2D5DCF"
         d="m -76.497051,-10.975028 c 2.643982,1.2681477 6.460067,3.8983706 8.894234,5.542756 5.634566,3.8065603 11.28051,7.8663269 16.209962,12.5679727 -0.8001,8.9921293 -0.951971,15.7519683 1.906323,24.5517453 5.085291,15.655925 17.66226,30.205627 32.354308,37.566335 12.2338038,6.129073 28.555156,9.235017 42.094414,6.770423 1.78091,-0.324115 3.951023,-0.684212 5.655998,-1.229519 l 0.346604,0.347134 c -1.864783,1.010973 -3.621352,2.005012 -5.530585,2.94296 -37.710269,18.527712 -81.226289,2.455069 -99.16742,-35.319493 -7.850981,-16.8783 -8.841846,-36.1455228 -2.763838,-53.740314 z"
         id="path2"
         style="fill:#ffffff;fill-opacity:1;stroke:none;stroke-width:0.264583" />
      <path
         fill="#36d3b1"
         d="m 37.390727,4.1101903 c 2.778125,-5.08793739 17.279937,-22.1080543 21.870723,-25.7227913 1.392766,2.395273 2.754312,5.629275 3.733535,8.228542 4.988719,12.95426398 5.794111,27.14572 2.302934,40.580997 -3.9497,14.858471 -13.463588,28.561241 -26.898336,36.30242 C 26.827238,70.03589 13.133728,71.713612 0.32577767,68.163962 -1.400364,67.698296 -3.1005765,67.115683 -4.7891473,66.529631 c 5.292e-4,-0.3175 -0.00794,-0.577056 -0.030692,-0.893762 C 9.9447046,62.219569 21.941177,53.952663 30.001444,41.026179 36.860502,30.024275 39.486492,16.904382 37.390727,4.1101903 Z"
         id="path3"
         style="fill:#ffffff;fill-opacity:1;fill-rule:nonzero;stroke:none;stroke-width:0.264583" />
      <path
         fill="#2d5dcf"
         d="M -8.280319,13.078136 C -3.9145406,7.6920004 1.1263327,2.6035126 5.996698,-2.3372609 28.752283,-25.422871 56.821447,-45.067011 87.29136,-56.637065 c -3.286622,2.807453 -6.830954,5.455568 -10.152565,8.247806 -7.217238,6.064694 -14.185098,12.418181 -20.886639,19.044144 C 42.585252,-15.784481 30.694819,0.49647153 19.92492,16.389873 16.441961,21.529812 12.645198,26.993127 9.4218933,32.282997 7.1286173,30.046495 4.5626378,26.376256 2.3010192,23.879452 -1.1444484,20.075604 -4.6954451,16.704116 -8.280319,13.078136 Z"
         id="path4"
         style="fill:#ffffff;stroke-width:0.277164" />
      <path
         fill="#36d3b1"
         d="m -45.667801,-52.097629 c 0.760148,-0.413014 1.48881,-0.888206 2.224088,-1.344083 2.413264,-1.496483 5.103018,-2.826544 7.699904,-3.979069 15.81732,-7.136606 33.6864846,-8.294158 50.292528,-3.258079 9.781381,2.967831 18.810287,8.004969 26.473414,14.769307 1.16205,1.024731 3.459957,3.095361 4.307946,4.270111 -6.485996,4.011877 -12.859543,8.062912 -18.896541,12.742862 -0.620977,0.481542 -1.240367,0.987954 -1.812925,1.525852 -1.991784,-2.519098 -3.552296,-4.444471 -5.801783,-6.742906 -10.4761774,-10.881519 -24.3736814,-17.832389 -39.364179,-19.688176 -6.036469,-0.706702 -19.293152,-0.518848 -24.731662,2.006071 z"
         id="path5"
         style="fill:#ffffff;fill-opacity:1;stroke-width:0.264583" />
      <path
         fill="#36d3b1"
         d="m -62.24795,-7.8281297 c 15.417237,2.9883312 30.067044,8.926777 43.094598,17.469162 3.071,2.0186037 5.890506,4.1848937 8.686897,6.5427647 0.446334,0.376502 1.4230909,1.277191 1.9143877,1.511427 3.279312,3.231933 6.5276253,6.237031 9.6794055,9.627505 2.0688405,2.225466 4.4161048,5.496851 6.513904,7.490304 -0.2004298,0.404114 -1.1863308,1.843293 -1.4700885,2.277737 l -3.0958949,4.748784 c -1.8399574,2.819437 -3.80591474,5.701252 -5.5026003,8.595886 -0.5598848,0.955183 -1.0674429,2.40053 -1.638255,3.478498 -0.4056883,0.08728 -0.72907,0.02342 -0.9510977,-0.335817 C -6.0676271,51.879803 -6.9559789,50.12946 -8.0412071,48.44421 -10.822102,44.069954 -13.783867,39.806405 -16.919391,35.664163 -29.261817,19.169911 -44.288607,2.9853381 -62.24795,-7.8281297 Z"
         id="path6"
         style="fill:#ffffff;stroke:none;stroke-width:0.25027" />
      <path
         fill="#2d5dcf"
         d="m -72.781771,-20.041241 c 6.059487,-10.697104 15.201106,-19.394751 26.630312,-24.144022 9.503304,-3.842015 19.947995,-4.714081 29.957183,-2.501636 3.20675,0.724694 6.4214371,1.88013 9.4583246,3.128963 l 0.6130396,0.328348 0.037306,0.165364 c -0.3730625,0.137848 -0.4307416,0.157427 -0.8212666,0.223309 -2.2439313,0.238654 -5.9819646,1.199356 -8.0843436,1.935162 -13.060362,4.702704 -23.744502,14.357085 -29.742606,26.875581 -7.685616,-3.459427 -19.729185,-5.329237 -28.047949,-6.011069 z"
         id="path7"
         style="fill:#ffffff;fill-opacity:1;stroke:none;stroke-width:0.264583" />
      <path
         fill="#5cccc3"
         d="m -6.1946139,65.95919 c 0.4815416,-0.130705 0.8887354,-0.217488 1.374775,-0.323321 0.022754,0.316706 0.031221,0.576262 0.030692,0.893762 -0.5445125,-0.182827 -0.8895291,-0.345016 -1.405467,-0.570441 z"
         id="path8"
         style="fill:#ffffff;stroke-width:0.264583" />
      <path
         fill="#486dbc"
         d="m 30.618188,74.794685 0.230452,-0.05768 c 0.151606,-0.03942 0.818356,-0.267229 0.938741,-0.185208 0.01561,0.133614 -0.730514,0.532871 -0.822589,0.590021 z"
         id="path9"
         style="fill:#ffffff;stroke-width:0.264583" />
      <path
         fill="#5cccc3"
         d="m -45.277011,-51.795739 c -0.101336,0.02778 -0.728927,0.262996 -0.800365,0.116416 0.01349,-0.125677 0.145521,-0.209285 0.236802,-0.279135 l 0.172773,-0.139171 z"
         id="path10"
         style="fill:#ffffff;stroke-width:0.264583" />
    </g>
  </g>
</svg>
